<svg width="30" height="29" viewBox="0 0 30 29" fill="none" xmlns="http://www.w3.org/2000/svg">
<path d="M20.3781 13.6929H4.90669C3.86741 13.6929 3.02637 14.5339 3.02637 15.5732V27.0054C3.02637 28.0447 3.86741 28.8857 4.90669 28.8857H20.3781C21.412 28.8857 22.2585 28.0447 22.2585 27.0054V15.5732C22.2585 14.5339 21.412 13.6929 20.3781 13.6929ZM6.27812 19.9446C6.27812 18.4125 7.51565 17.1643 9.04242 17.1643C12.6981 17.2972 12.7021 22.5894 9.04237 22.7197C7.51564 22.7197 6.27812 21.4768 6.27812 19.9446ZM16.0763 24.8304C14.0655 26.5642 11.1459 26.5679 9.13885 24.8304C8.91386 24.6375 8.88708 24.3 9.07993 24.075C9.27278 23.8554 9.61028 23.8286 9.83527 24.0214C11.4424 25.4036 13.7728 25.4036 15.3746 24.0214C15.9081 23.5688 16.5993 24.3686 16.0763 24.8304ZM16.1728 22.7197C14.646 22.7197 13.4085 21.4768 13.4085 19.9446C13.5376 16.2674 18.8019 16.2628 18.9317 19.9447C18.9317 21.4768 17.6942 22.7197 16.1728 22.7197Z" fill="#DBDBDB"/>
<path d="M0 21.2893C0 22.6769 0.792845 23.8768 1.95536 24.4661V18.1179C0.792845 18.7019 0 19.9019 0 21.2893Z" fill="#DBDBDB"/>
<path d="M23.3301 18.1179V24.4608C25.9114 23.2175 25.9104 19.3605 23.3301 18.1179Z" fill="#DBDBDB"/>
<path d="M12.1075 11.6625V12.6214H13.1789V11.6625C15.4431 11.0337 15.0279 7.66513 12.6431 7.63928C10.255 7.66638 9.83282 11.0337 12.1075 11.6625Z" fill="#DBDBDB"/>
<path d="M10.7353 19.9445C10.6635 17.6854 7.41759 17.6865 7.34961 19.9445C7.41943 22.1956 10.6623 22.1957 10.7353 19.9445Z" fill="#DBDBDB"/>
<path d="M16.1734 18.2356C13.9434 18.2917 13.9384 21.591 16.1735 21.6481C18.4063 21.5768 18.4003 18.3053 16.1734 18.2356Z" fill="#DBDBDB"/>
<path d="M28.1951 5.36441e-06H17.8398C16.8434 5.36441e-06 16.0344 0.808938 16.0344 1.80536V11.6839C16.02 12.1486 16.6248 12.4005 16.9505 12.0643C16.9505 12.0643 18.6969 10.3178 18.6969 10.3178H28.1951C29.1916 10.3178 30.0005 9.50355 30.0005 8.51249V1.80535C30.0005 0.808932 29.1916 5.36441e-06 28.1951 5.36441e-06ZM19.3505 3.03216H20.7059C21.4099 3.04532 21.4098 4.09388 20.7059 4.10358H19.3505C18.6472 4.09395 18.6458 3.0454 19.3505 3.03216ZM26.6844 7.28036H19.3505C18.6491 7.26757 18.6449 6.22256 19.3505 6.20893C19.3505 6.20893 26.6844 6.20893 26.6844 6.20893C27.3859 6.2217 27.39 7.26671 26.6844 7.28036ZM26.6844 4.10358H23.4862C23.1916 4.10358 22.9505 3.86787 22.9505 3.56787C22.9505 3.2732 23.1916 3.03216 23.4862 3.03216H26.6844C27.3879 3.04514 27.3888 4.09382 26.6844 4.10358Z" fill="#DBDBDB"/>
</svg>
