<svg width="30" height="29" viewBox="0 0 30 29" fill="none" xmlns="http://www.w3.org/2000/svg">
<path d="M1.50363 10.4047C1.23472 10.1075 1.25776 9.64845 1.55504 9.3796L8.57323 3.03163C8.84915 2.78208 9.26909 2.78153 9.5455 3.0303L13.5307 6.61542L18.6946 1.45161H18.5004C18.0996 1.45161 17.7746 1.12663 17.7746 0.725806C17.7746 0.32498 18.0996 0 18.5004 0H20.4469C20.8477 0 21.1727 0.32498 21.1727 0.725806V2.67048C21.1727 3.07131 20.8477 3.39629 20.4469 3.39629C20.046 3.39629 19.7211 3.07131 19.7211 2.67048V2.47808L14.0704 8.12873C13.7975 8.40163 13.3587 8.41331 13.0717 8.1551L9.06139 4.54736L2.52877 10.4561C2.3899 10.5817 2.21571 10.6436 2.04212 10.6436C1.84415 10.6436 1.64692 10.5631 1.50363 10.4047ZM27.7271 21.4938H22.0251V15.79C22.0251 15.5897 21.8626 15.4271 21.6622 15.4271C18.117 15.4271 15.2327 18.3114 15.2327 21.8567C15.2327 25.402 18.117 28.2862 21.6622 28.2862C25.2075 28.2862 28.09 25.402 28.09 21.8567C28.09 21.6563 27.9275 21.4938 27.7271 21.4938ZM23.5722 13.5172C23.3718 13.5172 23.2093 13.6797 23.2093 13.8801V19.9467C23.2093 20.1471 23.3718 20.3096 23.5722 20.3096H29.6371C29.8375 20.3096 30 20.1471 30 19.9467C30 16.4015 27.1165 13.5172 23.5722 13.5172ZM17.4117 7.24216C17.2113 7.24216 17.0488 7.40468 17.0488 7.60506V15.4709C18.1295 14.688 19.4156 14.1723 20.8098 14.0217V7.60506C20.8098 7.40468 20.6473 7.24216 20.4469 7.24216H17.4117ZM15.6859 16.7247V11.9197C15.6859 11.7194 15.5234 11.5568 15.323 11.5568H12.2879C12.0875 11.5568 11.925 11.7194 11.925 11.9197V21.1308H10.5621V9.67645C10.5621 9.47601 10.3995 9.31355 10.1992 9.31355H7.16401C6.96363 9.31355 6.80111 9.47601 6.80111 9.67645V21.1308H5.43817V14.2394C5.43817 14.039 5.27565 13.8765 5.07526 13.8765H2.04194C1.84155 13.8765 1.67903 14.039 1.67903 14.2394V21.1308H0.725806C0.32498 21.1308 0 21.4558 0 21.8566C0 22.2575 0.32498 22.5824 0.725806 22.5824H13.8148C13.7929 22.3433 13.781 22.1013 13.781 21.8566C13.781 19.8982 14.4993 18.1046 15.6858 16.7247H15.6859Z" fill="#DBDBDB"/>
</svg>
