<svg width="25" height="24" viewBox="0 0 25 24" fill="none" xmlns="http://www.w3.org/2000/svg">
<path d="M24.4564 12.7199C24.7282 12.7199 25.0001 12.4314 25.0001 12.1428V8.68123C25.0001 7.70036 24.2936 6.95044 23.3696 6.95044H19.0215V23.1047H23.3691C24.2931 23.1047 24.9995 22.3547 24.9995 21.3739V17.9123C24.9993 17.7593 24.9419 17.6127 24.84 17.5045C24.7381 17.3964 24.6 17.3355 24.4559 17.3352C23.8852 17.3258 23.3409 17.0785 22.9404 16.6468C22.5399 16.2151 22.3155 15.6335 22.3155 15.0276C22.3155 14.4216 22.5399 13.84 22.9404 13.4083C23.3409 12.9766 23.8852 12.7293 24.4559 12.7199H24.4564Z" fill="#DBDBDB"/>
<path d="M24.0762 5.22022C24.348 5.10502 24.5108 4.75886 24.4023 4.4703L23.315 1.18152C23.0431 0.258251 22.0628 -0.203109 21.2499 0.0854484L5.81543 5.73918H23.2064C23.4642 5.51147 23.7589 5.3356 24.0762 5.22022Z" fill="#DBDBDB"/>
<path d="M0 8.68184V12.1434C0 12.4896 0.217564 12.7205 0.543648 12.7205C0.831951 12.7158 1.11826 12.772 1.38592 12.8858C1.65357 12.9997 1.89722 13.1689 2.10267 13.3836C2.30813 13.5984 2.4713 13.8544 2.58267 14.1367C2.69404 14.419 2.7514 14.7221 2.7514 15.0282C2.7514 15.3343 2.69404 15.6373 2.58267 15.9196C2.4713 16.2019 2.30813 16.4579 2.10267 16.6727C1.89722 16.8874 1.65357 17.0567 1.38592 17.1705C1.11826 17.2843 0.831951 17.3405 0.543648 17.3358C0.217564 17.3358 0 17.5667 0 17.9129V21.3745C0 22.3554 0.70643 23.1053 1.63042 23.1053H17.9347V6.95105H1.63042C0.708517 6.95105 0 7.70097 0 8.68184ZM6.52169 11.5663H9.78254C10.1086 11.5663 10.3262 11.7973 10.3262 12.1434C10.3262 12.4896 10.1086 12.7205 9.78254 12.7205H6.52169C6.19561 12.7205 5.97805 12.4896 5.97805 12.1434C5.97805 11.7973 6.19561 11.5663 6.52169 11.5663ZM6.52169 14.4508H13.5865C13.9126 14.4508 14.1302 14.6817 14.1302 15.0279C14.1302 15.374 13.9126 15.605 13.5865 15.605H6.52169C6.19561 15.605 5.97805 15.374 5.97805 15.0279C5.97805 14.6817 6.19561 14.4508 6.52169 14.4508ZM6.52169 17.3352H13.5865C13.9126 17.3352 14.1302 17.5662 14.1302 17.9124C14.1302 18.2585 13.9126 18.4895 13.5865 18.4895H6.52169C6.19561 18.4895 5.97805 18.2585 5.97805 17.9124C5.97805 17.5662 6.19561 17.3358 6.52169 17.3358V17.3352Z" fill="#DBDBDB"/>
</svg>
