<svg width="53" height="38" viewBox="0 0 53 38" fill="none" xmlns="http://www.w3.org/2000/svg">
<path d="M52.5337 2.6626L36.46 18.6328L52.5337 34.603C52.8242 33.9957 53.0005 33.3243 53.0005 32.6073V4.65826C53.0005 3.94121 52.8242 3.26992 52.5337 2.6626Z" fill="white"/>
<path d="M48.3411 0H4.65777C3.94073 0 3.26943 0.176286 2.66211 0.466853L23.206 20.9072C25.0225 22.7237 27.9764 22.7237 29.7929 20.9072L50.3368 0.466853C49.7294 0.176286 49.0582 0 48.3411 0Z" fill="white"/>
<path d="M0.466853 2.66248C0.176286 3.2698 0 3.94109 0 4.65814V32.6072C0 33.3242 0.176286 33.9956 0.466853 34.6029L16.5406 18.6327L0.466853 2.66248Z" fill="white"/>
<path d="M34.2631 20.8284L31.9885 23.1029C28.9619 26.1296 24.0369 26.1296 21.0102 23.1029L18.7358 20.8284L2.66211 36.7986C3.26943 37.0891 3.94073 37.2654 4.65777 37.2654H48.3411C49.0582 37.2654 49.7294 37.0891 50.3368 36.7986L34.2631 20.8284Z" fill="white"/>
</svg>
