<svg width="15" height="12" viewBox="0 0 15 12" fill="none" xmlns="http://www.w3.org/2000/svg">
<path d="M13.75 0H1.25001C0.560596 0 0 0.560596 0 1.25001V10C0 10.6894 0.560596 11.25 1.25001 11.25H13.75C14.4394 11.25 15 10.6894 15 9.99999V1.25001C15 0.560596 14.4394 0 13.75 0ZM1.25001 0.62499H13.75C13.7961 0.62499 13.8366 0.641777 13.8799 0.65127C12.7977 1.64171 9.20927 4.92448 7.95352 6.0559C7.85525 6.1444 7.69688 6.24999 7.50003 6.24999C7.30318 6.24999 7.1448 6.1444 7.04622 6.05561C5.79059 4.92437 2.20198 1.64142 1.11996 0.651328C1.16326 0.641836 1.20393 0.62499 1.25001 0.62499ZM0.62499 9.99999V1.25001C0.62499 1.18878 0.643447 1.13323 0.659971 1.07728C1.48825 1.83536 3.99208 4.12591 5.6156 5.60227C3.99735 6.99231 1.49288 9.36677 0.658008 10.1629C0.643271 10.1097 0.62499 10.0578 0.62499 9.99999ZM13.75 10.625H1.25001C1.20009 10.625 1.1557 10.6076 1.10909 10.5965C1.9718 9.77405 4.49221 7.38595 6.082 6.0259C6.28925 6.2139 6.47856 6.38531 6.6278 6.51978C6.88538 6.75234 7.18687 6.87501 7.5 6.87501C7.81313 6.87501 8.11462 6.75231 8.37188 6.52008C8.52117 6.38555 8.71064 6.21398 8.918 6.0259C10.5079 7.3858 13.0279 9.77373 13.8909 10.5965C13.8443 10.6076 13.8 10.625 13.75 10.625ZM14.375 9.99999C14.375 10.0577 14.3567 10.1097 14.342 10.1629C13.5068 9.36636 11.0026 6.99217 9.38443 5.60229C11.008 4.12594 13.5115 1.8356 14.34 1.07722C14.3566 1.13317 14.375 1.18875 14.375 1.24998V9.99999Z" fill="#444951"/>
</svg>
