<svg width="13" height="16" viewBox="0 0 13 16" fill="none" xmlns="http://www.w3.org/2000/svg">
<path fill-rule="evenodd" clip-rule="evenodd" d="M6.50001 9.28577C6.80771 9.28577 7.05716 9.53522 7.05716 9.84291V11.3286C7.05716 11.6363 6.80771 11.8858 6.50001 11.8858C6.19232 11.8858 5.94287 11.6363 5.94287 11.3286V9.84291C5.94287 9.53522 6.19232 9.28577 6.50001 9.28577Z" fill="#666E7A"/>
<path fill-rule="evenodd" clip-rule="evenodd" d="M6.5 6.31424C5.33104 6.31424 4.27061 6.33927 3.22705 6.38726C2.25465 6.43198 1.44062 7.19222 1.30825 8.17532C1.20026 8.97745 1.11429 9.77811 1.11429 10.5857C1.11429 11.3932 1.20026 12.1939 1.30825 12.996C1.44062 13.9791 2.25465 14.7394 3.22705 14.7841C4.27061 14.8321 5.33104 14.8571 6.5 14.8571C7.66896 14.8571 8.72939 14.8321 9.77295 14.7841C10.7454 14.7394 11.5594 13.9791 11.6918 12.996C11.7998 12.1939 11.8857 11.3932 11.8857 10.5857C11.8857 9.77811 11.7998 8.97745 11.6918 8.17532C11.5594 7.19222 10.7454 6.43198 9.77295 6.38726C8.72939 6.33927 7.66896 6.31424 6.5 6.31424ZM3.17588 5.27415C4.23699 5.22537 5.31455 5.19995 6.5 5.19995C7.68545 5.19995 8.76304 5.22537 9.82414 5.27415C11.3529 5.34444 12.5943 6.52833 12.7961 8.02667C12.9061 8.84411 13 9.703 13 10.5857C13 11.4683 12.9061 12.3272 12.7961 13.1447C12.5943 14.643 11.3529 15.8269 9.82414 15.8972C8.76304 15.946 7.68545 15.9714 6.5 15.9714C5.31455 15.9714 4.23699 15.946 3.17588 15.8972C1.64703 15.8269 0.405667 14.643 0.203929 13.1447C0.0938674 12.3272 0 11.4683 0 10.5857C0 9.703 0.0938674 8.84411 0.203929 8.02667C0.405667 6.52833 1.64703 5.34444 3.17588 5.27415Z" fill="#666E7A"/>
<path fill-rule="evenodd" clip-rule="evenodd" d="M6.49997 1.11429C4.96147 1.11429 3.71426 2.36149 3.71426 3.9V5.75714C3.71426 6.06484 3.46482 6.31429 3.15712 6.31429C2.84941 6.31429 2.59998 6.06484 2.59998 5.75714V3.9C2.59998 1.74609 4.34606 0 6.49997 0C8.65388 0 10.4 1.74609 10.4 3.9V5.75714C10.4 6.06484 10.1505 6.31429 9.84283 6.31429C9.53513 6.31429 9.28568 6.06484 9.28568 5.75714V3.9C9.28568 2.36149 8.0385 1.11429 6.49997 1.11429Z" fill="#666E7A"/>
</svg>
