<svg width="59" height="59" viewBox="0 0 59 59" fill="none" xmlns="http://www.w3.org/2000/svg">
<path d="M29.5 0C13.233 0 0 13.233 0 29.5C0 45.767 13.233 59 29.5 59C45.767 59 59 45.767 59 29.5C59 13.233 45.767 0 29.5 0Z" fill="#6786CC"/>
<path d="M44.4519 23.2486L28.4726 39.2274C27.9932 39.7068 27.3639 39.9481 26.7347 39.9481C26.1054 39.9481 25.4761 39.7068 24.9967 39.2274L17.0072 31.238C16.0458 30.277 16.0458 28.7231 17.0072 27.7621C17.9683 26.8006 19.5217 26.8006 20.4832 27.7621L26.7347 34.0135L40.976 19.7726C41.937 18.8111 43.4904 18.8111 44.4519 19.7726C45.413 20.7337 45.413 22.2871 44.4519 23.2486Z" fill="#FAFAFA"/>
</svg>
