<svg width="14" height="17" viewBox="0 0 14 17" fill="none" xmlns="http://www.w3.org/2000/svg">
<path d="M12.1647 16.1733H1.83213C0.821299 16.1702 0.00315884 15.352 0 14.3412V13.5325C0 11.5551 0.830776 9.66928 2.29332 8.33941C2.90298 7.78661 3.80956 7.7108 4.50135 8.15619C5.22473 8.62054 6.08709 8.86693 7 8.86693C7.9129 8.86693 8.77527 8.62054 9.49864 8.15619C10.1904 7.7108 11.097 7.78661 11.7067 8.33941C13.1692 9.66928 14.0031 11.5551 14 13.5325V14.3412C13.9968 15.3552 13.1755 16.1733 12.1647 16.1733ZM3.51579 8.49735C3.21886 8.49735 2.93456 8.60791 2.7166 8.80691C1.38673 10.0168 0.62861 11.7352 0.62861 13.5325V14.3412C0.631768 15.0046 1.16561 15.5384 1.82897 15.5416H12.1615C12.8249 15.5416 13.3619 15.0046 13.3619 14.3412V13.5325C13.3619 11.7352 12.6038 10.0199 11.2739 8.80691C10.8759 8.44681 10.2852 8.39627 9.83348 8.68688C9.00902 9.21756 8.02662 9.4987 6.99368 9.4987C5.96074 9.4987 4.97834 9.21756 4.15388 8.68688C3.96751 8.56368 3.74323 8.49735 3.51579 8.49735Z" fill="#666E7A"/>
<path d="M6.99965 8.14981C4.75055 8.14666 2.9279 6.324 2.92474 4.07491C2.92474 1.82897 4.75055 0 6.99965 0C9.24875 0.00315884 11.0714 1.82581 11.0746 4.07491C11.0714 6.32084 9.24559 8.14981 6.99965 8.14981ZM6.99965 0.634927C5.09803 0.634927 3.55651 2.17644 3.55651 4.07807C3.55651 5.97969 5.09803 7.5212 6.99965 7.5212C8.90127 7.5212 10.4428 5.97969 10.4428 4.07807C10.4396 2.17644 8.90127 0.634927 6.99965 0.634927Z" fill="#666E7A"/>
</svg>
