<svg width="72" height="44" viewBox="0 0 72 44" fill="none" xmlns="http://www.w3.org/2000/svg">
<rect width="4.45725" height="35.658" transform="matrix(-1 0 0 1 71.6851 7.84241)" fill="#31446F"/>
<rect width="4.45725" height="39.001" transform="matrix(-1 0 0 1 64.999 4.49951)" fill="#31446F"/>
<rect width="4.45725" height="43.4582" transform="matrix(-1 0 0 1 58.313 0.0422363)" fill="#31446F"/>
<rect width="4.45725" height="39.001" transform="matrix(-1 0 0 1 51.6274 4.49951)" fill="#31446F"/>
<rect width="4.45725" height="34.5437" transform="matrix(-1 0 0 1 44.9414 8.95679)" fill="#31446F"/>
<rect width="4.45725" height="34.5437" transform="matrix(-1 0 0 1 18.1978 8.95679)" fill="#31446F"/>
<rect width="4.45725" height="39.001" transform="matrix(-1 0 0 1 11.5122 4.49951)" fill="#31446F"/>
<rect width="4.45725" height="43.4582" transform="matrix(-1 0 0 1 4.82617 0.0422363)" fill="#31446F"/>
<rect width="4.45725" height="30.0865" transform="matrix(-1 0 0 1 38.2554 13.4141)" fill="#31446F"/>
<rect width="4.45725" height="26.7435" transform="matrix(-1 0 0 1 31.5698 16.757)" fill="#31446F"/>
<rect width="4.45725" height="28.9721" transform="matrix(-1 0 0 1 24.8838 14.5283)" fill="#31446F"/>
</svg>
