<svg width="14" height="14" viewBox="0 0 14 14" fill="none" xmlns="http://www.w3.org/2000/svg">
<path d="M6.86755 0.563843C3.18098 0.563843 0.181641 3.56312 0.181641 7.2497C0.181641 10.9363 3.18098 13.9356 6.86755 13.9356C10.5541 13.9356 13.5534 10.9363 13.5534 7.2497C13.5534 3.56312 10.5542 0.563843 6.86755 0.563843ZM6.86755 13.0328C3.67878 13.0328 1.08445 10.4385 1.08445 7.24975C1.08445 4.06099 3.67878 1.46671 6.86755 1.46671C10.0563 1.46671 12.6506 4.06093 12.6506 7.24975C12.6506 10.4385 10.0564 13.0328 6.86755 13.0328Z" fill="#EF4444"/>
<path d="M9.04509 9.32134C7.84415 8.12045 5.89034 8.1204 4.68935 9.32134C4.51305 9.49764 4.51305 9.78348 4.68935 9.95967C4.86571 10.136 5.1515 10.136 5.3278 9.95967C6.17661 9.11075 7.55794 9.11086 8.40665 9.95967C8.49482 10.0478 8.61037 10.0919 8.72587 10.0919C8.84136 10.0919 8.95691 10.0478 9.04509 9.95967C9.22134 9.78342 9.22134 9.49758 9.04509 9.32134Z" fill="#EF4444"/>
<path d="M9.29613 6.59093C9.54544 6.59093 9.74754 6.38882 9.74754 6.13952C9.74754 5.89021 9.54544 5.68811 9.29613 5.68811C9.04683 5.68811 8.84473 5.89021 8.84473 6.13952C8.84473 6.38882 9.04683 6.59093 9.29613 6.59093Z" fill="#EF4444"/>
<path d="M4.43822 6.59093C4.68753 6.59093 4.88963 6.38882 4.88963 6.13952C4.88963 5.89021 4.68753 5.68811 4.43822 5.68811C4.18892 5.68811 3.98682 5.89021 3.98682 6.13952C3.98682 6.38882 4.18892 6.59093 4.43822 6.59093Z" fill="#EF4444"/>
</svg>
