<svg width="14" height="14" viewBox="0 0 14 14" fill="none" xmlns="http://www.w3.org/2000/svg">
<path d="M6.86752 0.505249C3.18088 0.505249 0.181641 3.5046 0.181641 7.19118C0.181641 10.8778 3.18093 13.8771 6.86752 13.8771C10.5541 13.8771 13.5534 10.8778 13.5534 7.19118C13.5534 3.50454 10.5542 0.505249 6.86752 0.505249ZM6.86752 12.9742C3.6788 12.9742 1.08446 10.38 1.08446 7.19118C1.08446 4.00235 3.6788 1.40807 6.86752 1.40807C10.0562 1.40807 12.6506 4.0024 12.6506 7.19118C12.6506 10.38 10.0563 12.9742 6.86752 12.9742Z" fill="#66BB6A"/>
<path d="M9.04511 8.7958C8.86865 8.6195 8.58286 8.6195 8.40655 8.7958C7.55779 9.64467 6.17651 9.64467 5.3278 8.7958C5.15145 8.6195 4.86566 8.6195 4.68935 8.7958C4.51305 8.9721 4.51305 9.25795 4.68935 9.43414C5.28985 10.0346 6.0785 10.3348 6.8672 10.3348C7.65591 10.3348 8.44456 10.0346 9.04505 9.43414C9.22141 9.25784 9.22141 8.97199 9.04511 8.7958Z" fill="#66BB6A"/>
<path d="M4.43969 6.0775C4.689 6.0775 4.8911 5.8754 4.8911 5.62609C4.8911 5.37679 4.689 5.17468 4.43969 5.17468C4.19038 5.17468 3.98828 5.37679 3.98828 5.62609C3.98828 5.8754 4.19038 6.0775 4.43969 6.0775Z" fill="#66BB6A"/>
<path d="M9.29711 6.0775C9.54642 6.0775 9.74852 5.8754 9.74852 5.62609C9.74852 5.37679 9.54642 5.17468 9.29711 5.17468C9.04781 5.17468 8.8457 5.37679 8.8457 5.62609C8.8457 5.8754 9.04781 6.0775 9.29711 6.0775Z" fill="#66BB6A"/>
</svg>
