<svg width="11" height="11" viewBox="0 0 11 11" fill="none" xmlns="http://www.w3.org/2000/svg">
<path d="M10.0584 4.4808C9.89725 4.4808 9.7667 4.61141 9.7667 4.77261V5.49141C9.7667 5.80205 9.51408 6.05483 9.20355 6.05483C8.88933 6.05483 8.64036 5.79695 8.64036 5.49141C8.64145 1.02283 8.63779 1.29467 8.6432 1.24016C8.67104 0.959836 8.90861 0.732424 9.20359 0.732424C9.51408 0.732424 9.76674 0.985164 9.76674 1.29584V3.41074C9.76666 3.57194 9.89721 3.70259 10.0583 3.70259C10.2194 3.70259 10.35 3.57197 10.35 3.41078V1.29584C10.35 0.663326 9.83565 0.14878 9.20347 0.14878C8.73373 0.14878 8.32928 0.432918 8.1523 0.838407C7.86296 0.813857 7.47707 0.926882 7.06084 0.618194C6.53128 0.225311 5.86951 0 5.2453 0L1.50059 3.88856e-05C0.585682 3.88856e-05 0.110418 1.07173 0.705539 1.75774C0.241708 2.12055 0.164357 2.78216 0.517937 3.23959C0.514904 3.24348 -0.079322 3.5968 0.0536788 4.31763C0.0936179 4.53741 0.199669 4.73094 0.349042 4.87917C-0.365585 5.52503 0.089923 6.72033 1.05643 6.72033H3.02415C2.33682 7.97777 2.3824 9.24878 2.39045 9.39779C2.45189 10.5357 3.76767 10.943 4.31515 9.93852C4.46199 9.66909 4.51045 9.34932 4.55727 9.04514C4.65963 8.62456 4.97148 7.86762 5.91396 7.42019C6.25202 7.31137 6.58985 7.13461 6.89225 6.90821C7.11011 6.74508 7.28888 6.52482 7.40928 6.27134C7.60871 5.8513 8.07339 5.95888 8.14989 5.94363C8.32563 6.35188 8.73167 6.63847 9.20347 6.63847C9.83569 6.63847 10.35 6.12389 10.35 5.49141V4.77261C10.35 4.61141 10.2195 4.4808 10.0584 4.4808ZM7.92756 5.35998C7.48321 5.35998 7.07297 5.61942 6.88234 6.0209C6.80246 6.18909 6.68501 6.33437 6.54268 6.44094C6.10479 6.76881 5.73573 6.85934 5.68381 6.88354C4.49762 7.43766 4.11164 8.39796 3.98708 8.92107C3.96763 9.0025 3.93038 9.42542 3.80298 9.65913C3.5346 10.1517 3.0021 9.90549 2.97301 9.36632C2.96546 9.22656 2.92059 7.96695 3.66065 6.78776C3.83728 6.5063 3.63556 6.13669 3.30026 6.13669H1.05643C0.795605 6.13669 0.583387 5.92441 0.583387 5.66346C0.583387 5.40251 0.795566 5.1902 1.05643 5.1902C1.70464 5.18887 0.879956 5.18615 1.35557 5.18615C1.51669 5.18615 1.64724 5.05554 1.64724 4.89435C1.64724 4.73315 1.51669 4.60254 1.35557 4.60254H1.09466C0.884894 4.60254 0.679949 4.46509 0.627021 4.2097C0.59696 4.03863 0.674505 3.91459 0.686521 3.88416L0.735056 3.81701L0.781255 3.7704C0.805989 3.74896 0.866928 3.70974 0.863039 3.71239C0.953806 3.67737 0.996429 3.65205 1.09462 3.65205H1.35549C1.51657 3.65205 1.64716 3.52143 1.64716 3.36024C1.64716 3.19909 1.51661 3.06844 1.35553 3.06844C0.846239 3.06836 0.694183 2.3629 1.16532 2.15763C1.29059 2.10296 1.37369 2.12172 1.50043 2.1179C1.66155 2.1179 1.7921 1.98729 1.7921 1.8261C1.7921 1.6672 1.66517 1.53799 1.50724 1.53438C1.45376 1.53333 1.48188 1.53336 1.44949 1.53154C1.4456 1.53076 1.36016 1.51364 1.3656 1.51473L1.34138 1.50687L1.22424 1.44551C1.22027 1.44217 1.15902 1.38999 1.16299 1.39334L1.10403 1.32078C1.10217 1.31654 1.00743 1.18491 1.0289 1.00326C1.06452 0.745653 1.2727 0.5838 1.50055 0.5838L5.24526 0.583761C5.73966 0.583761 6.28846 0.771915 6.71332 1.08718C7.30288 1.52445 7.86296 1.40077 8.05683 1.42221V5.36014H7.92756V5.35998Z" fill="#EF4444"/>
</svg>
