<svg width="11" height="11" viewBox="0 0 11 11" fill="none" xmlns="http://www.w3.org/2000/svg">
<path d="M10.0048 5.63032C10.7198 4.98474 10.2643 3.78928 9.29724 3.78928H7.32875C8.01635 2.53193 7.97075 1.26099 7.9627 1.11195C7.90092 -0.0303638 6.58322 -0.429835 6.03724 0.571295C5.89034 0.840708 5.8419 1.16046 5.79502 1.46462C5.69262 1.88518 5.38065 2.64206 4.4378 3.08947C4.09964 3.19824 3.76171 3.37495 3.45908 3.60141C3.24113 3.76454 3.06229 3.98481 2.94188 4.23824C2.74238 4.65825 2.27751 4.55068 2.20098 4.56597C2.02517 4.1577 1.61897 3.87113 1.14702 3.87113C0.514551 3.87102 0 4.38561 0 5.01808V5.46921C0 5.6304 0.130602 5.761 0.291784 5.761C0.452965 5.761 0.583567 5.6304 0.583567 5.46921V5.01808C0.583567 4.70743 0.836291 4.45466 1.14698 4.45466C1.4639 4.45466 1.7104 4.71548 1.7104 5.01808V9.21338C1.7104 9.51699 1.463 9.77676 1.14698 9.77676C0.836369 9.77676 0.583567 9.52404 0.583567 9.21338V6.83095C0.583567 6.66977 0.452965 6.53917 0.291784 6.53917C0.130602 6.53917 0 6.66977 0 6.83095V9.21338C0 9.84585 0.514551 10.3604 1.14702 10.3604C1.61695 10.3604 2.02156 10.0762 2.19861 9.67078C2.48806 9.69533 2.87411 9.58232 3.2905 9.89098C3.82027 10.2838 4.4823 10.5091 5.10676 10.5091H6.74402C6.9052 10.5091 7.0358 10.3785 7.0358 10.2174C7.0358 10.0562 6.9052 9.92557 6.74402 9.92557H5.10676C4.61217 9.92557 4.06315 9.73743 3.63811 9.42218C3.04832 8.98494 2.48802 9.10861 2.29408 9.08718V5.14946H2.42344C2.86796 5.14946 3.27837 4.89004 3.46907 4.48859C3.54898 4.3204 3.66648 4.17514 3.80883 4.06854C4.24701 3.74069 4.61614 3.6502 4.66807 3.626C5.85474 3.07192 6.24086 2.11168 6.36548 1.58861C6.3673 1.58098 6.36882 1.5732 6.36999 1.56546C6.40524 1.33647 6.44566 1.04126 6.54965 0.85059C6.81875 0.356814 7.35085 0.605531 7.37995 1.14339C7.3875 1.28313 7.43239 2.54266 6.69204 3.72178C6.51534 4.00321 6.71713 4.37281 7.05257 4.37281H9.29728C9.55821 4.37281 9.77051 4.58507 9.77051 4.846C9.77051 5.1069 9.55825 5.3192 9.29728 5.3192H9.07708C9.06697 5.3192 9.05685 5.31974 9.04681 5.32076C9.04304 5.32118 9.03926 5.32138 9.03541 5.32161L9.02273 5.32258C9.01456 5.32301 9.00631 5.32324 8.99803 5.32324C8.83685 5.32324 8.70624 5.45385 8.70624 5.61503C8.70624 5.77621 8.83685 5.90681 8.99803 5.90681H9.25904C9.46889 5.90681 9.67395 6.04426 9.7269 6.29967C9.76643 6.52104 9.63489 6.66794 9.6331 6.67494L9.58852 6.72427C9.58459 6.72789 9.56864 6.7426 9.57257 6.73898C9.5479 6.76034 9.492 6.79664 9.49589 6.79399C9.35132 6.87717 9.20453 6.85717 8.99806 6.85733C8.83692 6.85733 8.70628 6.98793 8.70628 7.14911C8.70628 7.31025 8.83688 7.44089 8.99803 7.44089C9.51258 7.44097 9.66477 8.16195 9.1715 8.35853C9.04623 8.40736 8.9643 8.38623 8.85307 8.39137C8.69189 8.39137 8.56129 8.52197 8.56129 8.68315C8.56129 8.84204 8.68827 8.97124 8.84626 8.97486C8.96387 8.97778 9.04833 9.01657 9.04444 9.01516C9.11458 9.04839 9.16847 9.09453 9.16302 9.09021C9.49297 9.37888 9.29681 9.92537 8.85299 9.92537H8.10579C7.94461 9.92537 7.81401 10.056 7.81401 10.2172C7.81401 10.3783 7.94461 10.5089 8.10579 10.5089H8.85299C9.3649 10.5089 9.80292 10.1436 9.89478 9.63892C9.89326 9.63242 10.0104 9.16825 9.64839 8.75139C10.1138 8.38756 10.1889 7.72603 9.83611 7.26964C10.3931 6.91016 10.4894 6.11067 10.0048 5.63032Z" fill="#22C55E"/>
</svg>
