<svg width="164" height="57" viewBox="0 0 164 57" fill="none" xmlns="http://www.w3.org/2000/svg">
<path d="M65.5541 32.3113C64.3966 31.9211 63.487 31.4159 62.8262 30.7945L63.7006 28.9314C64.3301 29.5049 65.137 29.9704 66.1222 30.329C67.1064 30.6875 68.1178 30.8668 69.1574 30.8668C70.5274 30.8668 71.5509 30.6325 72.2278 30.1619C72.9047 29.6923 73.2432 29.0669 73.2432 28.2866C73.2432 27.7131 73.0579 27.2476 72.6882 26.889C72.3185 26.5305 71.8611 26.2565 71.3182 26.065C70.7752 25.8735 70.0066 25.6585 69.0153 25.4202C67.7713 25.1176 66.7669 24.8151 66.0034 24.5126C65.2398 24.21 64.586 23.7445 64.0431 23.115C63.5001 22.4865 63.2281 21.638 63.2281 20.5714C63.2281 19.6801 63.4598 18.8754 63.9252 18.1593C64.3896 17.4422 65.0947 16.8697 66.0396 16.4398C66.9845 16.01 68.1571 15.795 69.5593 15.795C70.5354 15.795 71.4965 15.9224 72.4414 16.177C73.3862 16.4317 74.1972 16.7984 74.8741 17.2761L74.0944 19.1871C73.4014 18.7409 72.661 18.4028 71.8742 18.1715C71.0865 17.9413 70.3148 17.8252 69.5593 17.8252C68.2205 17.8252 67.2162 18.0727 66.5473 18.5657C65.8774 19.0598 65.543 19.6964 65.543 20.4767C65.543 21.0502 65.7324 21.5157 66.1101 21.8743C66.4879 22.2328 66.9563 22.5109 67.5154 22.7106C68.0745 22.9102 68.834 23.1211 69.795 23.3432C71.0391 23.6457 72.0394 23.9482 72.7949 24.2508C73.5504 24.5533 74.2002 25.0147 74.7442 25.6361C75.2871 26.2575 75.5591 27.0928 75.5591 28.144C75.5591 29.02 75.3234 29.8207 74.8499 30.5449C74.3775 31.2702 73.6613 31.8427 72.7002 32.2644C71.7392 32.6861 70.5586 32.897 69.1574 32.897C67.9123 32.897 66.7115 32.7014 65.5541 32.3113Z" fill="white"/>
<path d="M79.0059 15.9845H81.3681V32.7055H79.0059V15.9845Z" fill="white"/>
<path d="M98.3297 30.6274V32.7055H86.3301V15.9845H97.9993V18.0625H88.6923V23.1985H96.9838V25.2286H88.6923V30.6274H98.3297Z" fill="white"/>
<path d="M113.212 32.7055L109.645 27.5695C109.204 27.6011 108.857 27.6174 108.605 27.6174H104.518V32.7055H102.156V15.9845H108.605C110.747 15.9845 112.432 16.502 113.66 17.5369C114.889 18.5718 115.503 19.9969 115.503 21.8132C115.503 23.1027 115.187 24.2019 114.558 25.1095C113.928 26.0171 113.03 26.6782 111.865 27.0917L115.787 32.7055H113.212ZM111.96 24.6073C112.747 23.9543 113.14 23.0233 113.14 21.8121C113.14 20.602 112.747 19.674 111.96 19.0292C111.172 18.3844 110.031 18.0615 108.535 18.0615H104.519V25.5862H108.535C110.031 25.5872 111.172 25.2612 111.96 24.6073Z" fill="white"/>
<path d="M130.385 32.7055L126.818 27.5695C126.377 27.6011 126.03 27.6174 125.778 27.6174H121.691V32.7055H119.329V15.9845H125.778C127.92 15.9845 129.605 16.502 130.833 17.5369C132.062 18.5718 132.676 19.9969 132.676 21.8132C132.676 23.1027 132.36 24.2019 131.731 25.1095C131.101 26.0171 130.202 26.6782 129.038 27.0917L132.96 32.7055H130.385ZM129.133 24.6073C129.919 23.9543 130.313 23.0233 130.313 21.8121C130.313 20.602 129.919 19.674 129.133 19.0292C128.345 18.3844 127.204 18.0615 125.708 18.0615H121.692V25.5862H125.708C127.204 25.5872 128.345 25.2612 129.133 24.6073Z" fill="white"/>
<path d="M147.039 28.525H138.252L136.433 32.7055H134L141.489 15.9845H143.827L151.339 32.7055H148.858L147.039 28.525ZM146.212 26.614L142.645 18.4211L139.078 26.614H146.212Z" fill="white"/>
<path d="M90.7948 57L90.7716 44.8181L84.795 54.9699H83.708L77.7314 44.8894V57H75.4639V40.2791H77.401L84.2983 52.0311L91.102 40.2791H93.0391L93.0623 57H90.7948Z" fill="white"/>
<path d="M108.559 52.8195H99.7716L97.9523 57H95.5195L103.008 40.2791H105.346L112.858 57H110.378L108.559 52.8195ZM107.733 50.9086L104.166 42.7156L100.599 50.9086H107.733Z" fill="white"/>
<path d="M115.314 40.2791H122.283C124.031 40.2791 125.582 40.6295 126.937 41.3303C128.291 42.0311 129.343 43.0141 130.091 44.2803C130.839 45.5464 131.214 47 131.214 48.64C131.214 50.2801 130.84 51.7336 130.091 52.9998C129.343 54.266 128.292 55.249 126.937 55.9498C125.582 56.6506 124.032 57.001 122.283 57.001H115.314V40.2791ZM122.141 54.922C123.48 54.922 124.657 54.6592 125.673 54.1336C126.689 53.6079 127.472 52.8715 128.023 51.9241C128.574 50.9768 128.85 49.8818 128.85 48.64C128.85 47.3983 128.574 46.3033 128.023 45.356C127.472 44.4086 126.688 43.6721 125.673 43.1465C124.658 42.6209 123.48 42.3581 122.141 42.3581H117.677V54.923H122.141V54.922Z" fill="white"/>
<path d="M145.882 57L142.315 51.864C141.874 51.8956 141.527 51.9119 141.275 51.9119H137.188V57H134.826V40.2791H141.275C143.417 40.2791 145.102 40.7965 146.33 41.8315C147.559 42.8664 148.173 44.2915 148.173 46.1077C148.173 47.3973 147.857 48.4964 147.228 49.404C146.598 50.3116 145.7 50.9727 144.535 51.3863L148.457 57H145.882ZM144.63 48.9018C145.416 48.2489 145.81 47.3178 145.81 46.1067C145.81 44.8965 145.416 43.9686 144.63 43.3238C143.842 42.679 142.701 42.3561 141.205 42.3561H137.189V49.8807H141.205C142.701 49.8818 143.842 49.5558 144.63 48.9018Z" fill="white"/>
<path d="M164 54.922V57H151.999V40.2791H163.668V42.3571H154.361V47.4931H162.653V49.5232H154.361V54.922H164Z" fill="white"/>
<path d="M51.4163 16.1852L69.7984 57H60.7806L51.3296 36.505L46.6475 46.7963L51.3296 57H38.498L25.6643 28.5881L13.2658 57H0L25.752 0L42.3672 36.5162L51.4163 16.1852Z" fill="white"/>
</svg>
